PathFileType	4	(X/Y/Z)	Walk5.trc
DataRate	CameraRate	NumFrames	NumMarkers	Units	OrigDataRate	OrigDataStartFrame	OrigNumFrames
200.000000	200.000000	8	61	mm	200.000000	255	487
Frame#	Times		LFHD		RFHD		CLAV		LASI		RASI		RACR1		RUA1		RFA1		RWRU		RCAR		LACR1		LUA1		LWRU		LCAR		RTH3		LTH1		LTH3		LTH2		LTH4		LLFC		LTB1		LTB2		LTB4		LFA1		RTB1		LToe		LTB3		STRN		RTB4		RWRR		RTB3		RMFC		RMT5		RTH2		LBHD		RMT1		RTB2		LElbow		RLFC		RMMAL		LMFC		RTH4		RToe		LWRR		T10		RElbow		RTH1		LPSI		RBack		RBHD		LMT5		RLMAL		RCAL		RPSI		LElbowM		LMMAL		RElbowM		LCAL		LLMAL		LMT1		C7
			X1	Y1	Z1	X2	Y2	Z2	X3	Y3	Z3	X4	Y4	Z4	X5	Y5	Z5	X6	Y6	Z6	X7	Y7	Z7	X8	Y8	Z8	X9	Y9	Z9	X10	Y10	Z10	X11	Y11	Z11	X12	Y12	Z12	X13	Y13	Z13	X14	Y14	Z14	X15	Y15	Z15	X16	Y16	Z16	X17	Y17	Z17	X18	Y18	Z18	X19	Y19	Z19	X20	Y20	Z20	X21	Y21	Z21	X22	Y22	Z22	X23	Y23	Z23	X24	Y24	Z24	X25	Y25	Z25	X26	Y26	Z26	X27	Y27	Z27	X28	Y28	Z28	X29	Y29	Z29	X30	Y30	Z30	X31	Y31	Z31	X32	Y32	Z32	X33	Y33	Z33	X34	Y34	Z34	X35	Y35	Z35	X36	Y36	Z36	X37	Y37	Z37	X38	Y38	Z38	X39	Y39	Z39	X40	Y40	Z40	X41	Y41	Z41	X42	Y42	Z42	X43	Y43	Z43	X44	Y44	Z44	X45	Y45	Z45	X46	Y46	Z46	X47	Y47	Z47	X48	Y48	Z48	X49	Y49	Z49	X50	Y50	Z50	X51	Y51	Z51	X52	Y52	Z52	X53	Y53	Z53	X54	Y54	Z54	X55	Y55	Z55	X56	Y56	Z56	X57	Y57	Z57	X58	Y58	Z58	X59	Y59	Z59	X60	Y60	Z60	X61	Y61	Z61

255	1.275	-154.53	1586.8	-84.037	-158.79	1591.3	15.636	-189.9	1303.9	-31.014	-224.36	907.38	-137.64	-229.23	905.63	111.91	-251.12	1344.1	134.94	-257.37	1175	189.61	-213.13	889.1	247.51	-141.98	788.41	217.88	-147.82	718.44	262.75	-261.96	1352.2	-182.98	-293.94	1183.9	-250.82	-297.8	785.52	-322.61	-333.44	725.26	-357.87	-256.71	564.07	151.44	-257.2	739.62	-207.03	-224.36	574.74	-169.6	-185.36	672.24	-175.64	-242.02	656.3	-190.19	-194.54	438.6	-146.34	-163.53	339.72	-78.035	-193.66	252.73	-130.72	-181.53	255.54	-70.675	-337.59	904.02	-322.24	-323.98	321.39	97.772	-63.564	27.555	-58.082	-194.94	172.29	-62.198	-173.11	1167.9	-25.339	-400.62	278.95	92.32	-201.38	768.75	246.49	-476.09	238.07	83.825	-270.82	412.23	0.93883	-591.22	111.84	106.02	-209.82	657.32	139.51	-289.98	1509.1	-109.51	-560.55	92.446	27.47	-424.18	317.56	133.71	-342.34	1037.3	-282.49	-261.3	414.71	130.33	-574.84	225.18	21.691	-215.09	431.48	-15.114	-262.21	647.29	163.61	-535.82	49.042	63.895	-366.79	788.39	-318.66	-381.1	1204.1	-20.305	-271.44	1009	225.78	-264.7	733.13	180.63	-399.68	961.45	-62.417	-377.12	1291.7	49.247	-294.78	1521.1	33.342	-150.32	23.939	-114.57	-598.84	228.28	101.29	-643.68	257.39	57.032	-399.06	953.89	37.575	-355.81	1014.7	-212.43	-244.36	83.847	-24.117	-301.44	1002.4	152.4	-312.97	36.848	-63.577	-255.66	63.932	-103.95	-120.07	30.925	-30.669	-297.49	1410.3	-31.712
256	1.28	-146.38	1588.1	-84.041	-150.7	1592.6	15.605	-182.55	1305.5	-30.923	-216.41	908.63	-137.63	-221.73	907.58	111.83	-244.47	1345.7	134.95	-250.94	1176.5	189.47	-207.86	890.19	247.11	-137.46	788.82	217.56	-143.9	718.89	262.43	-254.25	1353.9	-182.99	-284.67	1185.4	-251.25	-281.07	787.37	-323.39	-315.06	726.59	-359.24	-244.69	566.27	151.34	-250.38	740.67	-206.93	-220.09	575.23	-169.75	-179.7	672.22	-175.22	-236.51	657.11	-190.25	-192.63	438.47	-146.41	-162.23	339.45	-78.267	-192.88	252.59	-130.9	-180.69	255.34	-70.864	-323.27	904.95	-323.43	-307.56	323.24	96.978	-63.48	27.534	-58.172	-194.42	172.17	-62.388	-165.76	1169.6	-24.959	-383.85	280.27	91.417	-197.06	769.71	246.18	-458.96	238.82	82.867	-255.08	414.71	0.4206	-570.94	111.89	105.16	-199.2	660.22	139.74	-282.17	1511	-109.55	-539.79	93.055	26.694	-407.69	318.65	132.89	-331.09	1038.3	-283.68	-245.88	417.03	129.98	-557.38	225.04	20.467	-213.46	431.34	-15.197	-251.68	649.48	163.64	-513.98	50.381	63.135	-350.14	788.83	-320.16	-373.56	1205.5	-20.83	-265.1	1010.5	225.24	-255.74	735.12	180.63	-391.76	963	-63.008	-369.93	1293.1	48.707	-287	1523.1	33.273	-150.31	23.961	-114.63	-581.55	227.67	100.11	-627.41	255.57	55.634	-391.43	955.43	36.995	-344.88	1015.4	-213.85	-244.2	83.985	-24.184	-294.92	1004.1	151.8	-312.95	37.043	-63.638	-255.63	64.016	-104.01	-120.06	30.988	-30.705	-290.14	1411.8	-31.921
257	1.285	-138.26	1589.4	-84.009	-142.66	1593.9	15.612	-175.23	1307.2	-30.838	-208.44	909.85	-137.58	-214.22	909.53	111.75	-237.84	1347.2	134.96	-244.59	1178.1	189.34	-202.64	891.31	246.73	-132.96	789.28	217.3	-139.99	719.4	262.16	-246.56	1355.6	-183	-275.47	1187	-251.68	-264.29	789.39	-324.06	-296.59	728.09	-360.45	-232.71	568.56	151.26	-243.56	741.69	-206.77	-215.85	575.72	-169.85	-174.07	672.2	-174.7	-231	657.91	-190.25	-190.81	438.38	-146.43	-161.04	339.22	-78.411	-192.11	252.48	-131.02	-179.91	255.18	-70.98	-308.95	905.98	-324.53	-291.11	325.15	96.256	-63.385	27.507	-58.251	-193.93	172.09	-62.518	-158.42	1171.3	-24.569	-366.96	281.51	90.572	-192.76	770.72	245.91	-441.61	239.35	81.954	-239.46	417.3	-0.038878	-550.28	111.55	104.3	-188.66	663.21	140.02	-274.39	1512.9	-109.58	-518.59	93.34	25.94	-391.17	319.63	132.09	-319.89	1039.4	-284.85	-230.54	419.52	129.67	-539.64	224.46	19.244	-212.01	431.23	-15.238	-241.2	651.73	163.72	-491.66	51.517	62.397	-333.4	789.41	-321.53	-366.03	1206.9	-21.374	-258.85	1012	224.72	-246.86	737.14	180.67	-383.84	964.54	-63.591	-362.74	1294.4	48.154	-279.25	1525	33.231	-150.3	23.979	-114.67	-564.02	226.58	98.902	-610.88	253.2	54.206	-383.78	956.96	36.434	-333.98	1016.2	-215.23	-244.04	84.142	-24.235	-288.48	1005.8	151.22	-312.92	37.273	-63.685	-255.58	64.13	-104.05	-120.05	31.034	-30.731	-282.82	1413.4	-32.128
258	1.29	-130.19	1590.7	-83.945	-134.66	1595.2	15.653	-167.91	1308.8	-30.763	-200.47	911.02	-137.49	-206.71	911.48	111.68	-231.24	1348.8	134.96	-238.32	1179.6	189.23	-197.48	892.45	246.39	-128.46	789.81	217.1	-136.07	719.96	261.93	-238.9	1357.2	-183.02	-266.36	1188.6	-252.13	-247.48	791.58	-324.6	-278.05	729.78	-361.5	-220.77	570.92	151.2	-236.72	742.68	-206.56	-211.64	576.21	-169.91	-168.47	672.17	-174.1	-225.5	658.69	-190.19	-189.06	438.34	-146.4	-159.95	339.05	-78.47	-191.36	252.42	-131.08	-179.21	255.06	-71.024	-294.63	907.11	-325.54	-274.65	327.1	95.617	-63.279	27.471	-58.318	-193.47	172.05	-62.591	-151.09	1173	-24.173	-349.96	282.66	89.791	-188.45	771.76	245.66	-424.08	239.65	81.088	-223.94	419.98	-0.43947	-529.27	110.83	103.46	-178.19	666.27	140.34	-266.65	1514.8	-109.58	-496.99	93.309	25.224	-374.65	320.49	131.3	-308.74	1040.6	-286	-215.3	422.14	129.38	-521.64	223.44	18.031	-210.74	431.15	-15.247	-230.78	654.02	163.83	-468.92	52.449	61.702	-316.59	790.13	-322.75	-358.51	1208.2	-21.937	-252.68	1013.4	224.22	-238.05	739.18	180.74	-375.91	966.04	-64.16	-355.56	1295.7	47.589	-271.53	1527	33.213	-150.27	23.992	-114.69	-546.26	225.05	97.687	-594.09	250.31	52.753	-376.11	958.49	35.897	-323.11	1017.1	-216.55	-243.88	84.318	-24.269	-282.11	1007.4	150.68	-312.88	37.537	-63.714	-255.51	64.275	-104.08	-120.01	31.065	-30.748	-275.53	1414.9	-32.336
259	1.295	-122.16	1591.9	-83.852	-126.71	1596.5	15.725	-160.61	1310.4	-30.698	-192.5	912.13	-137.36	-199.19	913.4	111.62	-224.65	1350.3	134.94	-232.09	1181	189.11	-192.36	893.6	246.08	-123.96	790.37	216.96	-132.14	720.55	261.76	-231.25	1358.9	-183.04	-257.31	1190.2	-252.59	-230.64	793.94	-325.02	-259.46	731.65	-362.39	-208.86	573.35	151.17	-229.88	743.64	-206.3	-207.44	576.7	-169.92	-162.9	672.12	-173.42	-220.01	659.43	-190.06	-187.39	438.33	-146.32	-158.93	338.92	-78.452	-190.61	252.4	-131.09	-178.55	254.99	-71.004	-280.33	908.32	-326.47	-258.21	329.09	95.069	-63.162	27.428	-58.375	-193.03	172.05	-62.612	-143.77	1174.7	-23.779	-332.89	283.71	89.082	-184.15	772.82	245.43	-406.37	239.72	80.273	-208.52	422.73	-0.78175	-507.96	109.76	102.63	-167.78	669.37	140.7	-258.93	1516.6	-109.56	-475.05	92.974	24.557	-358.14	321.23	130.54	-297.66	1041.8	-287.14	-200.16	424.88	129.11	-503.39	222	16.835	-209.64	431.13	-15.233	-220.4	656.33	163.97	-445.83	53.181	61.068	-299.71	790.99	-323.84	-351	1209.5	-22.517	-246.57	1014.8	223.74	-229.3	741.22	180.85	-367.98	967.5	-64.711	-348.39	1297	47.011	-263.84	1528.8	33.216	-150.24	24.001	-114.69	-528.27	223.08	96.471	-577.02	246.92	51.283	-368.42	960	35.388	-312.27	1018	-217.84	-243.71	84.516	-24.285	-275.81	1009.1	150.16	-312.81	37.836	-63.724	-255.42	64.453	-104.08	-119.96	31.083	-30.757	-268.25	1416.4	-32.547
260	1.3	-114.16	1593.2	-83.734	-118.79	1597.7	15.824	-153.31	1312	-30.642	-184.53	913.2	-137.21	-191.65	915.28	111.57	-218.06	1351.8	134.89	-225.91	1182.5	188.99	-187.28	894.75	245.8	-119.45	790.98	216.89	-128.2	721.16	261.63	-223.6	1360.5	-183.06	-248.32	1191.8	-253.06	-213.8	796.47	-325.31	-240.82	733.69	-363.11	-197.01	575.81	151.16	-223.04	744.55	-205.99	-203.27	577.18	-169.9	-157.37	672.06	-172.68	-214.53	660.14	-189.87	-185.77	438.36	-146.2	-157.98	338.84	-78.368	-189.87	252.43	-131.06	-177.94	254.96	-70.928	-266.04	909.62	-327.32	-241.78	331.1	94.618	-63.034	27.376	-58.423	-192.6	172.09	-62.587	-136.44	1176.4	-23.393	-315.74	284.65	88.453	-179.85	773.9	245.23	-388.5	239.56	79.512	-193.22	425.53	-1.067	-486.39	108.36	101.85	-157.43	672.51	141.09	-251.24	1518.4	-109.53	-452.79	92.352	23.946	-341.66	321.83	129.8	-286.63	1043	-288.25	-185.16	427.71	128.87	-484.9	220.16	15.665	-208.69	431.17	-15.205	-210.05	658.64	164.15	-422.42	53.716	60.508	-282.79	792	-324.8	-343.5	1210.7	-23.111	-240.54	1016.3	223.27	-220.6	743.25	181	-360.04	968.92	-65.239	-341.22	1298.2	46.42	-256.16	1530.6	33.237	-150.2	24.006	-114.68	-510.07	220.68	95.262	-559.68	243.05	49.807	-360.71	961.47	34.909	-301.48	1018.9	-219.08	-243.54	84.736	-24.284	-269.58	1010.8	149.67	-312.73	38.171	-63.711	-255.31	64.663	-104.07	-119.9	31.09	-30.76	-260.98	1417.8	-32.762
261	1.305	-106.21	1594.3	-83.594	-110.9	1598.8	15.946	-146.02	1313.5	-30.596	-176.57	914.2	-137.03	-184.12	917.11	111.52	-211.48	1353.2	134.83	-219.76	1183.9	188.86	-182.22	895.89	245.56	-114.93	791.6	216.88	-124.24	721.79	261.57	-215.95	1362.1	-183.09	-239.39	1193.4	-253.54	-196.96	799.15	-325.49	-222.16	735.91	-363.67	-185.19	578.3	151.18	-216.2	745.41	-205.64	-199.11	577.65	-169.84	-151.87	671.97	-171.88	-209.06	660.8	-189.64	-184.19	438.42	-146.05	-157.08	338.8	-78.228	-189.13	252.49	-130.99	-177.36	254.97	-70.808	-251.77	911	-328.09	-225.39	333.11	94.269	-62.895	27.315	-58.462	-192.17	172.17	-62.523	-129.1	1178	-23.019	-298.54	285.48	87.908	-175.53	774.97	245.06	-370.48	239.18	78.81	-178.03	428.35	-1.2969	-464.56	106.66	101.09	-147.16	675.66	141.52	-243.58	1520.2	-109.49	-430.25	91.46	23.396	-325.2	322.29	129.09	-275.67	1044.2	-289.36	-170.3	430.62	128.66	-466.17	217.92	14.528	-207.88	431.28	-15.169	-199.75	660.93	164.34	-398.76	54.065	60.031	-265.83	793.14	-325.63	-336.01	1211.8	-23.719	-234.57	1017.6	222.83	-211.93	745.26	181.17	-352.1	970.27	-65.74	-334.06	1299.3	45.816	-248.51	1532.2	33.273	-150.15	24.008	-114.65	-491.64	217.89	94.069	-542.05	238.74	48.333	-352.99	962.9	34.462	-290.74	1019.9	-220.3	-243.35	84.98	-24.264	-263.41	1012.4	149.2	-312.64	38.542	-63.674	-255.18	64.908	-104.04	-119.82	31.089	-30.758	-253.73	1419.2	-32.983
262	1.31	-98.29	1595.5	-83.437	-103.06	1599.9	16.088	-138.73	1314.9	-30.56	-168.62	915.13	-136.84	-176.57	918.87	111.48	-204.89	1354.6	134.74	-213.63	1185.2	188.73	-177.19	897.01	245.34	-110.38	792.23	216.93	-120.25	722.41	261.55	-208.28	1363.7	-183.13	-230.5	1195	-254.03	-180.13	801.98	-325.54	-203.47	738.29	-364.06	-173.44	580.81	151.22	-209.37	746.21	-205.25	-194.98	578.12	-169.75	-146.42	671.85	-171.04	-203.6	661.42	-189.35	-182.65	438.52	-145.88	-156.21	338.81	-78.047	-188.4	252.59	-130.89	-176.8	255.01	-70.654	-237.53	912.45	-328.79	-209.05	335.12	94.023	-62.747	27.248	-58.494	-191.75	172.28	-62.429	-121.75	1179.6	-22.664	-281.28	286.19	87.451	-171.19	776.03	244.91	-352.32	238.6	78.167	-162.96	431.18	-1.4737	-442.52	104.67	100.39	-136.95	678.82	141.98	-235.93	1521.8	-109.45	-407.46	90.321	22.911	-308.79	322.6	128.41	-264.77	1045.5	-290.45	-155.6	433.6	128.47	-447.22	215.32	13.433	-207.16	431.47	-15.13	-189.48	663.18	164.57	-374.89	54.238	59.64	-248.84	794.41	-326.34	-328.53	1212.9	-24.337	-228.66	1019	222.4	-203.29	747.22	181.36	-344.17	971.55	-66.213	-326.89	1300.4	45.197	-240.87	1533.8	33.318	-150.1	24.006	-114.6	-473	214.73	92.902	-524.14	234.01	46.873	-345.26	964.27	34.046	-280.04	1020.8	-221.48	-243.15	85.249	-24.226	-257.29	1014	148.74	-312.53	38.949	-63.61	-255.04	65.189	-104	-119.72	31.08	-30.753	-246.48	1420.5	-33.209
